<svg id="Layer_1" data-name="Layer 1" xmlns="http://www.w3.org/2000/svg" xmlns:xlink="http://www.w3.org/1999/xlink" viewBox="0 0 196.78 137.88"><defs><style>.cls-1,.cls-2{fill:none;}.cls-1{clip-rule:evenodd;}.cls-3{clip-path:url(#clip-path);}.cls-4{clip-path:url(#clip-path-2);}.cls-5{fill:#f26665;}</style><clipPath id="clip-path" transform="translate(15.39 15.44)"><path class="cls-1" d="M139.6,24C127.65,33.32,105.23,45.76,68,49.69q-4.27.45-8.17,1L56.94,39.75c-0.49-1.9-2-2.26-3.25-.77L40,54.65C4.89,64.1,2.55,80.39,2.55,80.39s-0.75,25,48.42,16l0.09,0,22.37,7.9c1.92,0.68,2.9-.33,2.27-2.21L72.08,91.21q3.67-1.09,7.6-2.36c51.65-16.82,66.1-44.47,70-61.29l13.12-15.88c1.26-1.52.73-3.12-1.19-3.57l-13.22,4.08L137.7,2.59c-1.91-.44-3.1.76-2.64,2.68Z"/></clipPath><clipPath id="clip-path-2" transform="translate(15.39 15.44)"><rect class="cls-2" x="-1037.85" y="-1701.61" width="1345.35" height="2392.93"/></clipPath></defs><title>coyfish</title><g class="cls-3"><g class="cls-4"><rect class="cls-5" width="196.78" height="137.88"/></g></g></svg>