<svg id="Layer_1" data-name="Layer 1" xmlns="http://www.w3.org/2000/svg" viewBox="0 0 218.41 126.26"><defs><style>.cls-1{fill:#fff;}.cls-2{fill:#e0bc4d;}.cls-3{fill:#f8ca61;}</style></defs><title>dock</title><path class="cls-1" d="M205.81,33.89a15.52,15.52,0,0,1-15.73-15.26,15.74,15.74,0,0,1,31.46,0A15.52,15.52,0,0,1,205.81,33.89Zm0-29.52a14.52,14.52,0,0,0-14.73,14.26,14.74,14.74,0,0,0,29.46,0A14.52,14.52,0,0,0,205.81,4.37Z" transform="translate(-3.13 -3.37)"/><path class="cls-1" d="M205.83,28.08a9.58,9.58,0,0,1-9.71-9.42,9.71,9.71,0,0,1,19.42,0A9.58,9.58,0,0,1,205.83,28.08Zm0-17.85a8.58,8.58,0,0,0-8.71,8.42,8.71,8.71,0,0,0,17.42,0A8.58,8.58,0,0,0,205.83,10.23Z" transform="translate(-3.13 -3.37)"/><path class="cls-1" d="M18.86,33.89A15.52,15.52,0,0,1,3.13,18.63,15.52,15.52,0,0,1,18.86,3.37,15.52,15.52,0,0,1,34.59,18.63,15.52,15.52,0,0,1,18.86,33.89Zm0-29.52A14.52,14.52,0,0,0,4.13,18.63,14.52,14.52,0,0,0,18.86,32.89,14.52,14.52,0,0,0,33.59,18.63,14.52,14.52,0,0,0,18.86,4.37Z" transform="translate(-3.13 -3.37)"/><path class="cls-1" d="M18.88,28.08a9.58,9.58,0,0,1-9.71-9.42,9.58,9.58,0,0,1,9.71-9.42,9.58,9.58,0,0,1,9.71,9.42A9.58,9.58,0,0,1,18.88,28.08Zm0-17.85a8.58,8.58,0,0,0-8.71,8.42,8.58,8.58,0,0,0,8.71,8.42,8.58,8.58,0,0,0,8.71-8.42A8.58,8.58,0,0,0,18.88,10.23Z" transform="translate(-3.13 -3.37)"/><rect class="cls-2" x="28.48" y="11.62" width="11.63" height="114.64"/><rect class="cls-2" x="179.48" y="11.62" width="11.63" height="114.64"/><rect class="cls-3" x="15.73" y="15.26" width="186.95" height="29"/><rect class="cls-3" x="15.73" y="56.76" width="186.95" height="29"/><rect class="cls-3" x="15.73" y="97.26" width="186.95" height="29"/><circle class="cls-2" cx="34.29" cy="111.76" r="4"/><circle class="cls-2" cx="185.29" cy="111.76" r="4"/><circle class="cls-2" cx="34.29" cy="71.26" r="4"/><circle class="cls-2" cx="185.29" cy="71.26" r="4"/><circle class="cls-2" cx="34.29" cy="30.76" r="4"/><circle class="cls-2" cx="185.29" cy="30.76" r="4"/></svg>