<svg id="Layer_1" data-name="Layer 1" xmlns="http://www.w3.org/2000/svg" viewBox="0 0 109.26 106"><defs><style>.cls-1{fill:#fff;}</style></defs><title>dockripple</title><path class="cls-1" d="M55.63,110C25.51,110,1,86.23,1,57S25.51,4,55.63,4s54.63,23.77,54.63,53S85.75,110,55.63,110Zm0-102.53C27.42,7.47,4.47,29.69,4.47,57s22.95,49.53,51.15,49.53S106.78,84.31,106.78,57,83.84,7.47,55.63,7.47Z" transform="translate(-1 -4)"/><path class="cls-1" d="M55.71,89.81C37.12,89.81,22,75.13,22,57.08S37.12,24.35,55.71,24.35,89.43,39,89.43,57.08,74.3,89.81,55.71,89.81Zm0-62C39,27.82,25.47,40.95,25.47,57.08S39,86.34,55.71,86.34,86,73.22,86,57.08,72.39,27.82,55.71,27.82Z" transform="translate(-1 -4)"/></svg>