<svg id="Layer_1" data-name="Layer 1" xmlns="http://www.w3.org/2000/svg" xmlns:xlink="http://www.w3.org/1999/xlink" viewBox="0 0 151.22 195.56"><defs><style>.cls-1,.cls-2{fill:none;}.cls-1{clip-rule:evenodd;}.cls-3{clip-path:url(#clip-path);}.cls-4{clip-path:url(#clip-path-2);}.cls-5{fill:#42c0d7;}.cls-6{fill:#fff;}.cls-7{clip-path:url(#clip-path-3);}.cls-8{clip-path:url(#clip-path-5);}.cls-9{fill:#e2b858;}</style><clipPath id="clip-path" transform="translate(5.7 -1.19)"><path class="cls-1" d="M28.52,108.23s-14.45,57-25.89,66.45L36,162l12.94,28S69.84,139.14,71,123.69Z"/></clipPath><clipPath id="clip-path-2" transform="translate(5.7 -1.19)"><rect class="cls-2" x="-25.37" y="-91.48" width="191.04" height="339.8"/></clipPath><clipPath id="clip-path-3" transform="translate(5.7 -1.19)"><path class="cls-1" d="M109.89,107.76s20.33,55.18,32.7,63.37L108,162.05,98.1,191.3S72,142.81,69.22,127.57Z"/></clipPath><clipPath id="clip-path-5" transform="translate(5.7 -1.19)"><ellipse class="cls-2" cx="71.62" cy="67.71" rx="64.55" ry="63.98"/></clipPath></defs><title>duckwin</title><g class="cls-3"><g class="cls-4"><rect class="cls-5" x="-2" y="105.12" width="77.69" height="88.42" transform="translate(-7.17 2.59) rotate(-5)"/></g></g><path class="cls-6" d="M49,185.08L37.52,158.83,7.75,170.45l1.23-1c9.59-7.91,20.41-54.76,20.52-55.23l0.06-.28,36.73,13.35v0.19c-1,13.06-16.86,56.57-17,57Zm-11.26-26.9L49,183.71c1.9-5.27,15.68-43.71,16.76-56.08l-35.83-13c-0.44,1.87-3,12.79-6.58,24.4-4.83,15.76-9.22,25.81-13.09,29.92Z" transform="translate(5.7 -1.19)"/><g class="cls-7"><g class="cls-4"><rect class="cls-5" x="67.06" y="105.28" width="77.69" height="88.42" transform="translate(3.11 0.68) rotate(-1)"/></g></g><path class="cls-6" d="M97.78,185.32l-0.28-.55c-0.21-.42-21.23-41.67-23.84-54.51l0-.19L73.8,130l34.66-17.64,0.1,0.28c0.16,0.47,16.36,46.88,26.84,53.56l1.37,0.87-30.41-7.95Zm-23.58-55c2.58,12.16,21,48.72,23.47,53.64L106,158.49l28,7.32c-4.33-3.64-9.87-13.29-16.5-28.72-4.89-11.38-8.73-22.19-9.38-24Z" transform="translate(5.7 -1.19)"/><g class="cls-8"><g class="cls-4"><rect class="cls-9" x="10.23" width="134.19" height="133.05"/></g></g><path class="cls-6" d="M60.18,115.12H60.07a0.51,0.51,0,0,1-.39-0.39c-1.08-4.77-11.7-4-11.81-4a0.51,0.51,0,0,1-.2-1c0.08,0,7.63-2.65,8.8-6.36a79.41,79.41,0,0,0,2.07-10.15c-10.07-5.13-13-16.79-13-16.9s-3-11.48,7.48-17.76c0.27-2.8,2.84-9.22,12.09-9.95,0-.35.1-0.76,0.16-1.2,0.3-2,.75-5.05-0.67-5.39-1.09-.26-2.82,1.39-5,3.47a53.6,53.6,0,0,1-6.67,5.65c-2.54,1.74-4.76,2.2-6.6,1.36a3.32,3.32,0,0,1-1.92-3,3.29,3.29,0,0,1,1.73-3l0.08,0c2.49-1.28,8-6.4,8-8.87,0-1.54.29-15.13,10.31-17.11a12.43,12.43,0,0,1,11.14,3.26c5.26,4.92,7.32,14.07,5.82,25.79,0,0.29.89,0.43,1.86,0.59,2.87,0.45,8.2,1.3,9.49,9.2,0.17,0.28.43,0.67,0.75,1.14C95.65,63.57,100.06,70,97.69,77A27.3,27.3,0,0,1,84.36,92.35c-0.28,5.64.9,9.82,3.5,12.44a9.87,9.87,0,0,0,6,2.79l0.94,0a0.51,0.51,0,0,1,0,1,7.64,7.64,0,0,1-1.06,0H93.68c-7.37,0-9,5.25-9.06,5.3a0.51,0.51,0,0,1-.49.36h0a0.51,0.51,0,0,1-.49-0.37c-1.36-4.69-11.93-4.79-12-4.8a0.51,0.51,0,0,1-.13-1c0.06,0,6.34-1.7,7.59-5.83a28.21,28.21,0,0,0,1.15-5.9l0.35-2.42a34.93,34.93,0,0,1-12.25,1.72,23.8,23.8,0,0,1-6.33-1c-0.49,4.81.4,8.66,2.64,11.44a12.51,12.51,0,0,0,7.8,4.3h0a0.51,0.51,0,0,1,.46.56,0.5,0.5,0,0,1-.55.46H72.3c-8.33-.83-11.68,3.49-11.72,3.53A0.51,0.51,0,0,1,60.18,115.12Zm-9.66-5.45c3.24,0.09,8.39.77,9.87,4a13.28,13.28,0,0,1,8.21-3.32,12.72,12.72,0,0,1-4.74-3.6c-2.53-3.12-3.47-7.44-2.8-12.83a0.51,0.51,0,0,1,.67-0.42,22.6,22.6,0,0,0,6.63,1.17A33.32,33.32,0,0,0,81,92.7a0.51,0.51,0,0,1,.68.55c-0.19,1.32-.35,2.38-0.47,3.26A28.83,28.83,0,0,1,80,102.56c-0.89,2.93-3.81,4.72-5.95,5.66,3.11,0.31,8.23,1.28,10,4.29a9.61,9.61,0,0,1,6.59-4.65,10.46,10.46,0,0,1-3.58-2.35C84.28,102.64,83,98.1,83.36,92a0.51,0.51,0,0,1,.28-0.43A26.26,26.26,0,0,0,96.73,76.65h0c2.2-6.5-2-12.65-4-15.6-0.37-.54-0.66-1-0.85-1.29a0.51,0.51,0,0,1-.06-0.17c-1.16-7.26-5.67-8-8.66-8.45-1.46-.23-2.84-0.45-2.71-1.71,1.46-11.39-.49-20.24-5.5-24.93a11.44,11.44,0,0,0-10.24-3c-9.22,1.82-9.49,14.65-9.49,16.11,0,3.28-6.33,8.65-8.52,9.78L46.36,47l0.24,0.45a2.25,2.25,0,0,0-1.19,2.1,2.31,2.31,0,0,0,1.33,2.06c1.49,0.68,3.38.25,5.6-1.27a52.79,52.79,0,0,0,6.54-5.55c2.5-2.39,4.31-4.11,5.94-3.72,2.33,0.56,1.82,4,1.44,6.54-0.09.63-.17,1.17-0.19,1.56a0.51,0.51,0,0,1-.48.48c-4.13.24-7.29,1.63-9.37,4.13A9.49,9.49,0,0,0,54,58.89a0.51,0.51,0,0,1-.25.42c-10.07,5.86-7.36,16.32-7.24,16.77,0,0.13,2.91,11.57,12.8,16.4a0.51,0.51,0,0,1,.28.51,78,78,0,0,1-2.15,10.7C56.58,106.41,53,108.5,50.52,109.67Z" transform="translate(5.7 -1.19)"/></svg>