<?xml version="1.0" encoding="UTF-8" standalone="no"?>
<svg width="303px" height="303px" viewBox="0 0 303 303" version="1.1" xmlns="http://www.w3.org/2000/svg" xmlns:xlink="http://www.w3.org/1999/xlink">
    <!-- Generator: Sketch 3.6.1 (26313) - http://www.bohemiancoding.com/sketch -->
    <title>Group</title>
    <desc>Created with Sketch.</desc>
    <defs></defs>
    <g id="Page-1" stroke="none" stroke-width="1" fill="none" fill-rule="evenodd">
        <g id="Ducks-Waiting" transform="translate(-36.000000, -139.000000)">
            <g id="Group" transform="translate(36.000000, 139.000000)">
                <ellipse id="Oval-1-Copy" fill="#E2B857" cx="151.155183" cy="151.155183" rx="151.155183" ry="151.155183"></ellipse>
                <path d="M209.489046,171.838047 C215.463063,154.199335 201.098112,137.844183 198.537819,133.290276 C194.554003,108.257437 172.648136,116.365032 173.218228,110.961107 C179.475584,62.1721625 157.003039,43.5400567 136.804033,47.5204589 C116.608442,51.5042749 114.758204,78.1040126 114.758204,84.5047452 C114.758204,90.9054778 101.673399,102.566759 96.4094368,105.270429 C96.3582309,105.297738 96.3036114,105.325048 96.2524055,105.352358 C91.7394623,107.741965 91.978423,114.531862 96.6245014,116.662026 C99.5295806,117.989964 103.916216,118.058239 110.207709,113.73305 C123.862606,104.345309 131.755136,91.9705597 137.090786,93.2507062 C142.423023,94.5308527 139.224364,105.84052 139.009299,110.107676 C116.820093,111.387822 112.341287,127.176296 112.126222,131.870166 C88.6568695,145.525062 95.4843176,170.486213 95.4843176,170.486213 C95.4843176,170.486213 101.799707,196.604615 124.582901,207.736769 C124.22446,211.522589 121.862163,224.911215 119.841239,231.335844 C117.035157,240.255905 99.5398218,246.229922 99.5398218,246.229922 C99.5398218,246.229922 124.361009,244.29434 127.023714,256 C127.023714,256 134.776281,245.704208 154.261818,247.694409 C154.261818,247.694409 125.746981,245.185322 130.092652,210.003482 C134.574872,211.526003 139.579391,212.498915 145.198381,212.65936 C156.378327,212.98025 165.824102,211.246078 173.839526,208.262483 C171.419195,224.740529 171.757154,223.634482 170.183427,228.826757 C167.172523,238.760694 152.469613,242.573823 152.469613,242.573823 C152.469613,242.573823 177.058667,242.672821 180.363152,254.071246 C180.363152,254.071246 184.538137,240.262732 204.085121,241.536051 C204.085121,241.536051 177.628759,243.027849 179.772578,205.705604 C196.482757,197.400013 205.628124,183.239886 209.489046,171.838047 L209.489046,171.838047 Z" id="Page-1" stroke="#FFFFFF" stroke-width="2" stroke-linecap="round" stroke-linejoin="round"></path>
            </g>
        </g>
    </g>
</svg>