<svg id="Layer_1" data-name="Layer 1" xmlns="http://www.w3.org/2000/svg" viewBox="0 0 250 250"><defs><style>.cls-1{fill:#fff;}</style></defs><title>duck</title><path class="cls-1" d="M95.72,249l-0.21,0a1,1,0,0,1-.77-0.76c-2.9-12.75-30.93-10.72-31.21-10.7a1,1,0,0,1-.4-1.94c0.2-.07,20.1-7,23.2-16.83,2.3-7.3,4.87-21.79,5.45-26.82-26.35-13.3-34-43.77-34.06-44.08S49.93,118,77.27,101.7c0.61-7.15,7.23-24.1,31.59-25.89,0.1-1,.27-2.12.46-3.41,0.8-5.38,2-13.5-2-14.46-3-.72-7.6,3.63-13.37,9.15A139.92,139.92,0,0,1,76.55,81.83C70,86.31,64.32,87.5,59.62,85.35a8.35,8.35,0,0,1-4.83-7.44,8.26,8.26,0,0,1,4.35-7.63l0.19-.1c5.92-3,21-16.42,21-23.49,0-4,.75-39.28,26.69-44.39a32.17,32.17,0,0,1,28.82,8.44c13.66,12.77,19,36.61,15.11,67.13-0.1,1,1.49,1.33,5.14,1.91,7.94,1.26,21.22,3.36,24.55,23.84,0.44,0.75,1.14,1.78,2,3.05,5.5,8,17,24.77,10.83,42.85a71,71,0,0,1-34.86,40.07c-0.77,15,2.35,26.06,9.27,33a26.06,26.06,0,0,0,15.86,7.34c0.81,0,1.64,0,2.5.1a1,1,0,0,1,0,2,19.28,19.28,0,0,1-2.74-.09h-0.21c-19.5,0-23.95,14-24,14.1a1,1,0,0,1-1,.71h0a1,1,0,0,1-1-.72c-3.63-12.51-31.51-12.78-31.79-12.78a1,1,0,0,1-.25-2c0.17,0,16.76-4.48,20.09-15.46,1.5-4.94,1.5-4.94,3-15.49,0.28-1.91.6-4.17,1-6.86A90.57,90.57,0,0,1,117,198.13a61.81,61.81,0,0,1-16.85-2.79c-1.38,12.87,1,23.15,7,30.57,7.89,9.75,19.58,11.23,20.57,11.34h0.08a1,1,0,0,1-.19,2l-0.17,0c-21.94-2.17-30.82,9.26-30.91,9.37A1,1,0,0,1,95.72,249ZM69,235.38c8.36,0.09,23.42,1.55,27.13,10.66a28,28,0,0,1,6.51-4.68A39.64,39.64,0,0,1,119.15,237a33.19,33.19,0,0,1-13.56-9.87c-6.54-8.09-9-19.29-7.26-33.29a1,1,0,0,1,1.31-.83,59.46,59.46,0,0,0,17.44,3.07,87.6,87.6,0,0,0,33.24-5.1,1,1,0,0,1,1.34,1.08c-0.5,3.43-.91,6.21-1.24,8.5-1.54,10.7-1.54,10.7-3.09,15.78-2.46,8.11-11,12.83-16.55,15.11,8,0.67,23,3.09,27.58,11.69,1.93-3.67,7-10.74,18.44-12.73A27.1,27.1,0,0,1,166.47,224c-7.43-7.44-10.74-19.24-9.82-35.09a1,1,0,0,1,.55-0.84,69,69,0,0,0,34.38-39.18l0.95,0.32-0.95-.32c5.8-17.14-5.27-33.31-10.59-41.08-1-1.41-1.72-2.52-2.2-3.35a1,1,0,0,1-.12-0.33c-3.06-19.21-15-21.11-22.92-22.36-3.82-.61-7.12-1.13-6.81-4.11,3.83-29.89-1.31-53.12-14.49-65.44A30.23,30.23,0,0,0,107.4,4.26c-9.72,1.92-16.82,8.65-21.09,20a69.14,69.14,0,0,0-4,22.42c0,8-15.5,21.88-22.08,25.27L60.07,72a6.2,6.2,0,0,0-3.29,5.8,6.37,6.37,0,0,0,3.67,5.68c4,1.84,9.05.71,15-3.35A138.23,138.23,0,0,0,92.55,65.64C99,59.46,103.68,55,107.77,56c5.8,1.39,4.49,10.24,3.53,16.7-0.24,1.65-.46,3.07-0.51,4.11a1,1,0,0,1-.94.95C85.59,79.14,79.52,96,79.23,102.33a1,1,0,0,1-.5.82c-26.58,15.46-19.15,43.92-19.07,44.2s7.64,30.39,33.63,43.09a1,1,0,0,1,.56,1c-0.41,4.31-3.16,20.13-5.61,27.91C85.89,226.84,75.48,232.51,69,235.38Z"/></svg>