<svg id="Layer_1" data-name="Layer 1" xmlns="http://www.w3.org/2000/svg" xmlns:xlink="http://www.w3.org/1999/xlink" viewBox="0 0 147.75 191.52"><defs><style>.cls-1,.cls-2{fill:none;}.cls-1{clip-rule:evenodd;}.cls-3{clip-path:url(#clip-path);}.cls-4{clip-path:url(#clip-path-2);}.cls-5{fill:#cc4b49;}.cls-6{clip-path:url(#clip-path-3);}.cls-7{fill:#fff;}.cls-8{clip-path:url(#clip-path-5);}.cls-9{fill:#09b0c0;}</style><clipPath id="clip-path" transform="translate(4.37 -6.23)"><path class="cls-1" d="M29.07,111.26S15,167,3.77,176.18l32.65-12.35,12.64,27.4s20.38-49.77,21.56-64.87Z"/></clipPath><clipPath id="clip-path-2" transform="translate(4.37 -6.23)"><rect class="cls-2" x="-23.59" y="-83.86" width="186.65" height="332"/></clipPath><clipPath id="clip-path-3" transform="translate(4.37 -6.23)"><path class="cls-1" d="M108.57,110.8s19.86,53.92,31.95,61.92l-33.76-8.87-9.71,28.57S71.58,145,68.83,130.16Z"/></clipPath><clipPath id="clip-path-5" transform="translate(4.37 -6.23)"><ellipse class="cls-2" cx="71.66" cy="71.55" rx="63.39" ry="62.83"/></clipPath></defs><title>frogswin</title><g class="cls-3"><g class="cls-4"><rect class="cls-5" x="-0.75" y="108.22" width="75.91" height="86.38" transform="matrix(1, -0.09, 0.09, 1, -8.68, -2.41)"/></g></g><g class="cls-6"><g class="cls-4"><rect class="cls-5" x="66.72" y="108.38" width="75.91" height="86.38" transform="translate(1.74 -4.38) rotate(-1)"/></g></g><path class="cls-7" d="M49.12,186.34L37.85,160.69,8.77,172l1.2-1c9.37-7.73,19.94-53.5,20-54l0.06-.27,35.89,13,0,0.19c-1,12.76-16.47,55.27-16.63,55.7Zm-11-26.29,11,24.95c1.86-5.15,15.32-42.71,16.37-54.8l-35-12.73C30,119.31,27.49,130,24,141.32c-4.71,15.4-9,25.21-12.79,29.23Z" transform="translate(4.37 -6.23)"/><path class="cls-7" d="M96.74,186.58L96.46,186c-0.21-.41-20.75-40.71-23.29-53.26l0-.19,0.17-.09,33.87-17.24,0.09,0.27c0.16,0.46,16,45.8,26.22,52.33l1.34,0.85L105.11,161Zm-23-53.71c2.52,11.88,20.5,47.6,22.94,52.41l8.15-24.92,27.39,7.16c-4.23-3.56-9.65-13-16.12-28.06-4.78-11.12-8.53-21.68-9.16-23.48Z" transform="translate(4.37 -6.23)"/><g class="cls-8"><g class="cls-4"><rect class="cls-9" x="10.15" width="131.75" height="130.64"/></g></g><path class="cls-7" d="M54.48,117.57a1.93,1.93,0,0,1-1.88-2.32,1.89,1.89,0,0,1,.26-0.63l-0.78-1.54-3.37,2.14a1.92,1.92,0,0,1-2.3,2.13,1.92,1.92,0,0,1-.05-3.74c0.87-1.2,1.07-1.92,1-2.12a0.3,0.3,0,0,0-.19-0.07L46,111.27A1.92,1.92,0,1,1,45,108a1.9,1.9,0,0,1,.93.49c2.51-.72,3.76-1.49,3.94-2a6,6,0,0,0-1.56-1.29A1.92,1.92,0,0,1,46.06,103a1.92,1.92,0,0,1,3.79.29c3.84,2.46,5.46,2.89,5.77,2.76,2.07-.81,7.86-3.92,7.61-7.54a39.77,39.77,0,0,0-2.46-3.34c-2.69-3.44-6.38-8.16-6.94-11.9C53.11,78.36,64.39,69.51,67,67.54a26.64,26.64,0,0,1-8.56-19.68A3.5,3.5,0,0,1,55.86,49C54.25,48.89,46,45.56,45,45.18l-0.07,0a1.2,1.2,0,0,0-.91,0,3.63,3.63,0,0,0-1.85,2.14,1.9,1.9,0,0,1,.13,1.2,1.92,1.92,0,1,1-2.67-2.15V44.89l-2-.38a1.92,1.92,0,1,1,.28-2.37,2.33,2.33,0,0,0,1.78-.63,1.16,1.16,0,0,0-.25-1.18,1.85,1.85,0,0,1-.58,0,1.92,1.92,0,1,1,2.28-1.48,1.69,1.69,0,0,1,0,.17,2.9,2.9,0,0,0,1.78.89,3.8,3.8,0,0,0,1.33-.53,1.91,1.91,0,0,1,.8-2.13,1.92,1.92,0,1,1,1.16,3.52,1.28,1.28,0,0,0-.07.77c0.54,0.49,4.72,1.43,8.36,2,0.3,0,2-.32,3.52-2.7-0.68-.91-2.28-3.73.63-7.35a3,3,0,0,1-.23-2.27,2.56,2.56,0,0,1,1.72-1.46c0.35-1,1.79-4.5,5.21-4.82s5.33,3.63,5.79,4.76a2.83,2.83,0,0,1,1.75,1,3,3,0,0,1,.43,2.47,7.77,7.77,0,0,1,1.24,7.47c2.68,1.58,5.78,3.07,6.37,2.88,0.82-.55,2.93-4.38,3-6.36l-0.8-.25a1.93,1.93,0,0,1-1.68.45,1.92,1.92,0,0,1,.8-3.76,1.88,1.88,0,0,1,.86.44l1.58-.52V32.41a1.92,1.92,0,1,1,2.65-1.35,1.82,1.82,0,0,1-.18.49,1.33,1.33,0,0,0,.8.61,5,5,0,0,0,1.68-.81,1.85,1.85,0,0,1,0-.53,1.92,1.92,0,1,1,3.76.8,1.9,1.9,0,0,1-1.68,1.51,1.29,1.29,0,0,0-.28.87,1.56,1.56,0,0,0,.27.41A1.92,1.92,0,1,1,91.06,37a5.43,5.43,0,0,0-2.92.51c-1,.71-1.51,3.68-2.1,7.45q-0.13.81-.27,1.69a2,2,0,0,1-1.06,1.52c-2.08,1.08-6.78-.71-9.27-1.81C76.82,48.9,79,54.61,77,62.81c0.71-.43,1.95-1.35,3.07-2.18,4.47-3.33,8.34-6,10.4-5.47,3.44,1,.91,12,0,15.41a11,11,0,0,0,7.42-3l0.31-3.08A1.92,1.92,0,0,1,99.57,61,1.92,1.92,0,0,1,101,63.27a1.88,1.88,0,0,1-.38.8,2.27,2.27,0,0,0,.7,1.21,0.12,0.12,0,0,0,.11,0,6.46,6.46,0,0,0,2-1.58A1.92,1.92,0,0,1,105.56,61a1.92,1.92,0,0,1,.18,3.71,2.11,2.11,0,0,0-.4,1.49,0.47,0.47,0,0,0,.26.16,1.93,1.93,0,0,1,2.12-1,1.92,1.92,0,1,1-.8,3.76,1.87,1.87,0,0,1-.88-0.46c-1.43.28-2.39,0.74-2.71,1.28a12.15,12.15,0,0,0,2.31,2,1.85,1.85,0,0,1,.68,0A1.92,1.92,0,1,1,104,73.53c-1.3-1-3.49-2.44-5.2-2.06L87.22,77.31c-0.12.07-1.44,0.82-2.3,0.24a2,2,0,0,1-.56-2.09c0.11-.72.16-1.57,0.23-2.54a29.64,29.64,0,0,1,1.19-7.52A44,44,0,0,1,76,72.19l-1,1.92-1.83.1L61.41,84.29a34.59,34.59,0,0,1,8.46,15c0.26,0.52.49,1.58-6.45,7.13-3,2.4-6.11,4.65-6.83,5.17L56,114.43A1.92,1.92,0,0,1,54.48,117.57Zm-2-5.93,1.58,3.12-0.24.25a0.92,0.92,0,0,0-.24.44,0.93,0.93,0,0,0,.71,1.1,0.92,0.92,0,0,0,.8-1.59l-0.22-.19,0.83-3.8,0.16-.11c6.29-4.49,13-10,13.09-11.22l0-.08a33.91,33.91,0,0,0-8.58-14.93l-0.41-.38,12.81-11,1.6-.09,0.9-1.7,0.14-.07a40.93,40.93,0,0,0,11.44-8.42l2.61-3-1.8,3.55C86,66.77,85.76,70.21,85.58,73c-0.06,1-.12,1.87-0.23,2.63a1.27,1.27,0,0,0,.13,1.12,1.69,1.69,0,0,0,1.27-.28l11.77-5.92c2.14-.52,4.64,1,6.36,2.43l0.26,0.21-0.12.39a0.92,0.92,0,1,0,1.09-.7,0.91,0.91,0,0,0-.45,0l-0.23.07-0.2-.14c-2.89-2.08-2.93-2.59-2.95-2.87v-0.1l0-.1c0.36-1,1.64-1.75,3.81-2.14l0.29-.05,0.18,0.23a0.92,0.92,0,1,0,.91-1.48h0a0.93,0.93,0,0,0-1.09.7l-0.09.4-0.41,0a1.66,1.66,0,0,1-1.39-.65c-0.38-.55-0.24-1.44.44-2.72l0.11-.21,0.24,0a0.93,0.93,0,1,0-.87-0.33l0.27,0.33-0.28.31a7.69,7.69,0,0,1-2.62,2.13,1.11,1.11,0,0,1-.9-0.05,3.25,3.25,0,0,1-1.29-2.09l-0.09-.31,0.24-.21a0.91,0.91,0,0,0,.3-0.5,0.93,0.93,0,1,0-1.81-.39,0.92,0.92,0,0,0,.64,1.07l0.39,0.12-0.42,4.22-0.13.13a11.78,11.78,0,0,1-8.94,3.33l-0.58-.06,0.15-.56c1.55-5.8,2.83-14.23.82-14.8-1.75-.49-6.44,3-9.53,5.31S76.73,64.3,76.16,64a0.66,0.66,0,0,1-.29-0.71V63.19c2.95-11-2.1-17.62-2.15-17.69l-1.36-1.74,2,1c2.1,1,8,3.55,9.91,2.54a1,1,0,0,0,.54-0.79l0.27-1.69c0.67-4.32,1.12-7.17,2.52-8.12A6.93,6.93,0,0,1,91.4,36l0.33,0,0.11,0.32a0.93,0.93,0,1,0,.2-0.94l-0.33.35-0.36-.32a3,3,0,0,1-.81-1.07,2.23,2.23,0,0,1,.5-2l0.16-.24,0.29,0a0.92,0.92,0,0,0,.25-1.82,0.91,0.91,0,0,0-1.08,1.14l0.09,0.34-0.29.2a6.09,6.09,0,0,1-2.41,1.15c-0.6.06-1.23-.36-1.91-1.29l-0.23-.32,0.25-.3a0.9,0.9,0,0,0,.2-0.4,0.93,0.93,0,0,0-.71-1.1,0.93,0.93,0,0,0-.41,1.8l0.45,0.08v2.62l-2.9,1-0.22-.28a0.92,0.92,0,1,0,0,1.12l0.21-.28,2.09,0.66,0,0.33c0.21,2.27-2.35,6.87-3.46,7.61s-5.35-1.62-7.78-3.09l-0.38-.23,0.19-.41a6.77,6.77,0,0,0-1.06-7l-0.18-.19,0.06-.26a2.21,2.21,0,0,0-.2-1.89,2,2,0,0,0-1.33-.65H70.42l-0.11-.32s-1.68-4.68-4.87-4.39S61,30.27,61,30.31l-0.08.27-0.27.07a1.78,1.78,0,0,0-1.31.93,2.26,2.26,0,0,0,.31,1.71l0.2,0.31-0.24.28c-3.27,3.83-.75,6.47-0.65,6.58l0.26,0.27-0.19.33c-1.93,3.35-4.45,3.49-4.56,3.49h-0.1c-3.93-.65-8.7-1.62-9.14-2.57A2.36,2.36,0,0,1,45.41,40l0.15-.35,0.38,0.06a0.93,0.93,0,1,0-.65-0.44l0.24,0.41-0.4.26a5.33,5.33,0,0,1-2.1.9c-0.71.09-1.66-.37-2.84-1.35l-0.25-.21,0.12,0.15c1,1.18.81,2,.52,2.54-0.42.72-1.4,1.1-2.93,1.13H37.3l-0.12-.33a0.92,0.92,0,1,0-.11.86l0.19-.26,3.4,0.65v3l-0.39.08a0.92,0.92,0,0,0-.59,1.41,0.92,0.92,0,0,0,.58.4,0.93,0.93,0,0,0,1-1.41l-0.14-.22,0.11-.24c0.7-1.61,1.57-2.59,2.58-2.91a2.17,2.17,0,0,1,1.66.1c2.54,1,9.29,3.66,10.52,3.77,1,0.1,2.23-1.29,2.6-1.83l1-1.48-0.09,1.78a25.48,25.48,0,0,0,8.63,20.66l0.53,0.4L68.07,68c-3.89,2.86-13.84,11.14-13.25,15.12,0.52,3.48,4.11,8.08,6.74,11.44a36.81,36.81,0,0,1,2.6,3.56l0.05,0.09v0.1c0.51,5.17-8.14,8.63-8.23,8.67-0.93.37-3.26-.64-6.91-3l-0.26-.17,0-.31a0.92,0.92,0,0,0-.72-1,0.93,0.93,0,0,0-1.1.71,0.92,0.92,0,0,0,.71,1.1,0.91,0.91,0,0,0,.5,0l0.23-.08,0.21,0.13c2,1.3,2.16,1.87,2.21,2.08l0,0.08v0.08c-0.1,1.13-1.78,2.15-5,3l-0.34.09-0.2-.28a0.92,0.92,0,0,0-.56-0.37,0.93,0.93,0,1,0,.55,1.45l0.17-.23,0.28,0,1.46,0.17a1.13,1.13,0,0,1,1,.67c0.29,0.69-.12,1.78-1.22,3.25l-0.13.17-0.21,0a0.93,0.93,0,1,0,1,.6l-0.14-.37ZM46.11,41.5h0Zm-6.82-4a0.93,0.93,0,0,0-.78,1.43,0.92,0.92,0,0,0,.58.4,0.9,0.9,0,0,0,.45,0l0.32-.09,0,0,0.2-.35a0.94,0.94,0,0,0,.11-0.28,0.93,0.93,0,0,0-.71-1.1Z" transform="translate(4.37 -6.23)"/></svg>