<?xml version="1.0" encoding="UTF-8" standalone="no"?>
<svg width="303px" height="303px" viewBox="0 0 303 303" version="1.1" xmlns="http://www.w3.org/2000/svg" xmlns:xlink="http://www.w3.org/1999/xlink">
    <!-- Generator: Sketch 3.6.1 (26313) - http://www.bohemiancoding.com/sketch -->
    <title>Group</title>
    <desc>Created with Sketch.</desc>
    <defs></defs>
    <g id="Page-1" stroke="none" stroke-width="1" fill="none" fill-rule="evenodd">
        <g id="Frogs-Waiting" transform="translate(-37.000000, -139.000000)">
            <g id="Group" transform="translate(37.000000, 139.000000)">
                <path d="M151.155183,302.310365 C67.6744804,302.310365 0,234.635885 0,151.155183 C0,67.6744804 67.6744804,0 151.155183,0 C234.635885,0 302.310365,67.6744804 302.310365,151.155183 C302.310365,234.635885 234.635885,302.310365 151.155183,302.310365 Z" id="Oval-1" fill="#03B0C0"></path>
                <path d="M247.000014,137.959943 C245.111591,137.556192 243.255752,138.751862 242.832167,140.630369 C241.860331,140.590702 240.888494,140.332868 240.361492,139.566448 C239.53274,138.360861 240.627827,135.810853 241.52883,134.122181 C242.901584,133.881347 244.060421,132.838676 244.369256,131.390838 C244.774424,129.488249 243.561753,127.616826 241.659163,127.210241 C239.756574,126.803657 237.883734,128.017744 237.478566,129.920334 C237.247649,130.999837 237.552233,132.060924 238.193985,132.85851 C236.669647,134.548599 234.143722,137.10144 232.215633,137.795609 C230.31871,138.478445 229.059289,135.509102 228.39912,133.296261 C228.951622,132.813176 229.36529,132.164341 229.529624,131.390838 C229.936209,129.488249 228.722121,127.616826 226.819532,127.210241 C224.916942,126.803657 223.045519,128.017744 222.638935,129.920334 C222.2536,131.728006 223.337354,133.491762 225.075609,134.013097 L224.187356,142.990543 C214.743826,152.198906 203.056288,150.899819 203.056288,150.899819 C203.056288,150.899819 212.618819,115.128869 204.236375,112.768694 C195.853931,110.407103 168.937176,136.497938 169.645512,131.774756 C177.202037,103.560331 164.097827,86.9144435 164.097827,86.9144435 C164.097827,86.9144435 190.306246,100.018653 191.722917,90.3371213 C193.728924,77.8236639 194.673844,69.2060525 198.097938,66.8841283 C200.234278,65.4348735 204.162708,65.3187065 206.816133,65.4377069 C207.211384,66.5540438 208.149221,67.4479634 209.391642,67.7142976 C211.294231,68.1208823 213.167071,66.906795 213.572239,65.0042055 C213.978823,63.1016159 212.766153,61.2301932 210.863563,60.8236085 C209.623976,60.558691 208.405638,60.9879424 207.589636,61.8407785 C206.908217,61.2245265 206.229631,60.468024 205.88963,59.6435213 C205.460379,58.6022679 206.206965,57.0566796 207.024384,55.8071755 C208.734306,55.9105925 210.308228,54.7645054 210.676562,53.0389998 C211.083147,51.1364103 209.870476,49.2649875 207.967887,48.8584029 C206.065297,48.4518182 204.192458,49.6659055 203.785873,51.568495 C203.665456,52.1337469 203.70229,52.6919153 203.843957,53.2146671 C202.287035,54.2743372 199.929694,55.7179252 198.452106,55.865259 C197.216769,55.9885094 195.855347,54.5619214 194.835344,53.1735836 C195.196595,52.7457489 195.472846,52.2357472 195.597513,51.650662 C196.004098,49.7480724 194.790011,47.875233 192.887421,47.470065 C190.984832,47.0634803 189.113409,48.276151 188.706824,50.1787405 C188.30024,52.0827467 189.514327,53.9541695 191.416916,54.3607541 C191.439583,54.3650041 191.463666,54.3635875 191.486333,54.3678375 L191.486333,58.9351857 L185.985399,60.7414416 C185.493814,60.1110229 184.799645,59.6336046 183.956725,59.4536874 C182.054136,59.0471027 180.181296,60.26119 179.776128,62.1637795 C179.369544,64.0663691 180.582214,65.9377918 182.484804,66.3443765 C183.867475,66.6390441 185.226063,66.0737923 186.025065,65.0155388 L189.59791,66.1361258 C190.069662,71.212059 184.048809,82.1912615 181.569634,83.8445169 C179.09046,85.4977722 163.624659,76.1704085 163.624659,76.1704085 C167.402921,68.143549 163.270491,60.2328566 160.791317,57.5185144 C162.562156,49.9619898 155.832967,49.7268224 155.832967,49.7268224 C155.832967,49.7268224 151.465369,37.2119482 142.49359,38.0392843 C133.520394,38.8652036 130.451884,49.7268224 130.451884,49.7268224 C123.131944,51.7328289 127.264374,58.1078497 127.264374,58.1078497 C118.291178,68.6153006 125.728702,76.0528248 125.728702,76.0528248 C121.243521,83.8445169 115.457836,84.081101 115.457836,84.081101 C115.457836,84.081101 94.7985182,80.6570065 93.7360147,78.4144158 C93.2387631,77.3646624 93.622681,75.9026576 94.1709328,74.6418202 C96.0026888,74.9251545 97.7593612,73.746484 98.1517791,71.910478 C98.5583638,70.0078884 97.3442765,68.135049 95.441687,67.729881 C93.5390974,67.3232964 91.6676747,68.535967 91.26109,70.4399732 C91.0698394,71.3353094 91.24834,72.2193123 91.6775914,72.9517314 C90.3402537,73.8159008 88.5382478,74.7990707 87.0068261,74.9903213 C85.2331537,75.2127387 82.6264785,73.3512327 80.9250563,71.9288947 C81.1134736,71.608727 81.2678908,71.2630592 81.3500577,70.8805579 C81.7566424,68.9779684 80.5425551,67.105129 78.6399655,66.6985443 C76.737376,66.2933763 74.8659532,67.506047 74.4593686,69.4086365 C74.0527839,71.311226 75.2668712,73.1840655 77.1694608,73.5892334 C77.754546,73.7153172 78.3325479,73.6714004 78.870883,73.5155665 C79.9248864,74.8075707 81.0228066,76.732827 80.0410534,78.4144158 C79.0238835,80.1583382 75.9964569,80.5592561 73.8161998,80.6102563 C73.4081985,79.5236694 72.4788621,78.6580833 71.2591082,78.3974158 C69.3565186,77.9908311 67.4850959,79.2035017 67.0785112,81.1075079 C66.6719266,83.0100975 67.8845972,84.8815202 69.7886034,85.2881049 C71.2109413,85.5912725 72.6162793,84.9891872 73.4039485,83.8700169 L80.0410534,85.1436044 L80.0410534,90.532622 C78.7221325,90.8117062 77.6213789,91.8359596 77.3210446,93.2398808 C76.9144599,95.1424703 78.1285472,97.0153098 80.0311367,97.4218944 C81.9337263,97.8270624 83.805149,96.6143918 84.2117337,94.7118023 C84.4143177,93.7612158 84.2131504,92.8177128 83.7243988,92.0612103 C87.7264952,82.861347 92.5559276,85.7329397 92.5559276,85.7329397 C92.5559276,85.7329397 115.103668,94.8237193 118.999514,95.1778871 C122.89536,95.5320549 126.556038,90.1019539 126.556038,90.1019539 C124.902783,124.456233 148.395443,142.282207 148.395443,142.282207 C148.395443,142.282207 113.215245,168.136458 115.103668,180.8865 C116.993507,193.636541 134.465314,211.581516 138.36116,218.428289 C139.423664,229.170907 122.06944,237.316767 118.764346,238.615854 C116.139254,239.647191 106.59514,233.758089 102.775794,231.288831 C102.974128,229.510908 101.813874,227.836403 100.027452,227.453901 C98.1248624,227.048733 96.2534396,228.261404 95.8468549,230.163994 C95.4402703,232.066583 96.6529409,233.939423 98.5569471,234.344591 C99.2213659,234.487674 99.8772847,234.421091 100.473703,234.20859 C102.328126,235.400011 105.111885,237.36635 105.423553,238.615854 C105.158635,241.613531 97.721111,244.017622 93.9697655,245.043292 C93.4767639,244.34629 92.7386781,243.817871 91.8376752,243.626621 C89.9350857,243.220036 88.0636629,244.432707 87.6570783,246.335296 C87.2504936,248.239302 88.4645809,250.110725 90.3671704,250.51731 C91.7583416,250.813394 93.1268461,250.239642 93.924432,249.167222 C94.7772681,249.255056 95.9318552,249.386806 97.514277,249.595057 C101.153706,250.073892 97.5666939,255.370826 96.083439,257.352749 C94.6299343,257.528416 93.3804302,258.588086 93.0588459,260.099674 C92.6522612,262.002264 93.8649318,263.873687 95.7675214,264.280271 C97.6701109,264.686856 99.5429503,263.474185 99.949535,261.570179 C100.091202,260.90151 100.024619,260.239925 99.8078678,259.640673 L110.027734,253.136735 L112.930494,258.860087 C112.495576,259.316255 112.169741,259.885757 112.028074,260.547343 C111.62149,262.449932 112.835577,264.321355 114.738166,264.72794 C116.640756,265.134524 118.513595,263.920437 118.918763,262.017847 C119.193598,260.732927 118.717596,259.472089 117.799593,258.657503 L119.590266,250.420976 C119.590266,250.420976 154.65288,225.394061 152.410289,221.144048 C146.50702,198.123139 130.806052,183.602259 130.806052,183.602259 L161.145484,157.511424 L165.395498,157.274839 L167.757089,152.789658 C186.056232,143.581295 196.444683,131.657173 196.444683,131.657173 C190.777998,142.872959 191.722917,154.914665 190.660414,161.998021 C189.59791,169.081378 195.972931,165.303116 195.972931,165.303116 L224.778108,150.782235 C229.795958,149.568148 236.032145,153.789828 239.459073,156.566504 C239.426489,156.671337 239.381156,156.770504 239.358489,156.881005 C238.951905,158.783594 240.164575,160.655017 242.068581,161.061602 C243.971171,161.468186 245.842594,160.254099 246.249178,158.35151 C246.655763,156.44892 245.441676,154.577497 243.539086,154.170913 C242.951168,154.044829 242.370332,154.090162 241.830581,154.247413 C239.164405,152.33349 235.128309,149.25223 235.048975,148.066476 C235.979728,145.354967 240.51166,144.122463 243.523503,143.592628 C244.013671,144.207464 244.69934,144.673548 245.529509,144.850632 C247.432099,145.257217 249.303522,144.04313 249.710106,142.14054 C250.116691,140.237951 248.902604,138.366528 247.000014,137.959943 L247.000014,137.959943 Z" id="Page-1" stroke="#FFFFFF" stroke-width="2"></path>
            </g>
        </g>
    </g>
</svg>