<svg id="Layer_1" data-name="Layer 1" xmlns="http://www.w3.org/2000/svg" viewBox="0 0 250 250"><defs><style>.cls-1{fill:none;stroke:#fff;stroke-miterlimit:10;stroke-width:2px;}</style></defs><title>frog</title><path class="cls-1" d="M223.24,111a3.77,3.77,0,0,0-4.46,2.86,3.23,3.23,0,0,1-2.64-1.14c-0.89-1.29.28-4,1.25-5.83a3.79,3.79,0,1,0-3.57-1.35c-1.63,1.81-4.33,4.54-6.4,5.28s-3.38-2.45-4.08-4.81a3.77,3.77,0,1,0-3.56.77l-0.95,9.6a30.13,30.13,0,0,1-22.61,8.46s10.23-38.27,1.26-40.8-37.76,25.39-37,20.33c8.08-30.19-5.94-48-5.94-48s28,14,29.55,3.66c2.15-13.39,3.16-22.61,6.82-25.09,2.29-1.55,6.49-1.67,9.33-1.55a3.77,3.77,0,1,0,.83-3.85,7,7,0,0,1-1.82-2.35c-0.46-1.11.34-2.77,1.21-4.1a3.79,3.79,0,1,0-3.4-2.77c-1.67,1.13-4.19,2.68-5.77,2.84-1.32.13-2.78-1.39-3.87-2.88a3.73,3.73,0,0,0,.82-1.63,3.77,3.77,0,1,0-4.47,2.9h0.07v4.89L158,28.35a3.76,3.76,0,1,0,0,4.57l3.82,1.2c0.51,5.43-5.94,17.18-8.59,18.95S134,44.86,134,44.86c4-8.59-.38-17.05-3-20,1.89-8.08-5.3-8.34-5.3-8.34S121,3.18,111.43,4.06s-12.88,12.5-12.88,12.5c-7.83,2.15-3.41,9-3.41,9-9.6,11.24-1.64,19.2-1.64,19.2-4.8,8.34-11,8.59-11,8.59s-22.1-3.66-23.24-6.06c-0.53-1.12-.12-2.69.46-4a3.77,3.77,0,1,0-2.67-1.81,13.48,13.48,0,0,1-5,2.18c-1.9.24-4.69-1.75-6.51-3.28A3.73,3.73,0,0,0,46,39.2a3.77,3.77,0,1,0-4.47,2.9A3.73,3.73,0,0,0,43.37,42c1.13,1.38,2.3,3.44,1.25,5.24S40.29,49.55,38,49.61a3.76,3.76,0,1,0-.44,3.49l7.1,1.36v5.77a3.76,3.76,0,1,0,3.94,1.64C52.84,52,58,55.09,58,55.09s24.12,9.73,28.29,10.1,8.08-5.43,8.08-5.43c-1.77,36.75,23.37,55.83,23.37,55.83s-37.64,27.66-35.62,41.3S102.84,189.72,107,197c1.14,11.49-17.43,20.21-21,21.6-2.81,1.1-13-5.2-17.11-7.84a3.77,3.77,0,1,0-2.46,3.12c2,1.28,5,3.38,5.3,4.72-0.28,3.21-8.24,5.78-12.25,6.88a3.76,3.76,0,1,0,0,4.41c0.91,0.09,2.15.23,3.84,0.46,3.89,0.51.06,6.18-1.53,8.3a3.77,3.77,0,1,0,4,2.45l10.93-7,3.11,6.12a3.77,3.77,0,1,0,5.21-.22l1.92-8.81S124.44,204.5,122,200a90.32,90.32,0,0,0-23.11-40.16l32.46-27.91,4.55-.25,2.53-4.8c19.58-9.85,30.69-22.61,30.69-22.61-6.06,12-5.05,24.88-6.19,32.46s5.68,3.54,5.68,3.54l30.82-15.54c5.37-1.3,12,3.22,15.71,6.19,0,0.11-.08.22-0.11,0.34a3.77,3.77,0,1,0,4.47-2.9,3.73,3.73,0,0,0-1.83.08c-2.85-2-7.17-5.34-7.26-6.61,1-2.9,5.84-4.22,9.07-4.79A3.76,3.76,0,1,0,223.24,111Z"/></svg>