<svg id="Layer_1" data-name="Layer 1" xmlns="http://www.w3.org/2000/svg" viewBox="0 0 137.59 137.59"><defs><style>.cls-1{fill:#fff;}</style></defs><title>gameripple</title><path class="cls-1" d="M70.29,139.09a68.8,68.8,0,1,1,68.8-68.8A68.87,68.87,0,0,1,70.29,139.09Zm0-135.65a66.85,66.85,0,1,0,66.85,66.85A66.93,66.93,0,0,0,70.29,3.44Z" transform="translate(-1.5 -1.5)"/><path class="cls-1" d="M70.29,123.11a52.81,52.81,0,1,1,52.81-52.81A52.87,52.87,0,0,1,70.29,123.11Zm0-103.68a50.87,50.87,0,1,0,50.87,50.87A50.93,50.93,0,0,0,70.29,19.43Z" transform="translate(-1.5 -1.5)"/><path class="cls-1" d="M70.29,104.79a34.49,34.49,0,1,1,34.49-34.49A34.53,34.53,0,0,1,70.29,104.79Zm0-67a32.55,32.55,0,1,0,32.55,32.55A32.59,32.59,0,0,0,70.29,37.74Z" transform="translate(-1.5 -1.5)"/></svg>