<svg id="Layer_1" data-name="Layer 1" xmlns="http://www.w3.org/2000/svg" xmlns:xlink="http://www.w3.org/1999/xlink" viewBox="0 0 191.22 211.77"><defs><style>.cls-1,.cls-2{fill:none;}.cls-1{clip-rule:evenodd;}.cls-3{clip-path:url(#clip-path);}.cls-4{clip-path:url(#clip-path-2);}.cls-5{isolation:isolate;}.cls-6{clip-path:url(#clip-path-3);}.cls-7{clip-path:url(#clip-path-4);}.cls-8{fill:#bbd874;}.cls-9{clip-path:url(#clip-path-6);}.cls-10{fill:#9acc62;}.cls-11{clip-path:url(#clip-path-8);}.cls-12{clip-path:url(#clip-path-10);}.cls-13{clip-path:url(#clip-path-12);}.cls-14{clip-path:url(#clip-path-14);}.cls-15{clip-path:url(#clip-path-16);}.cls-16{clip-path:url(#clip-path-18);}.cls-17{clip-path:url(#clip-path-19);}.cls-18{clip-path:url(#clip-path-20);}.cls-19{clip-path:url(#clip-path-21);}.cls-20{clip-path:url(#clip-path-23);}.cls-21{clip-path:url(#clip-path-25);}.cls-22{clip-path:url(#clip-path-27);}.cls-23{clip-path:url(#clip-path-29);}.cls-24{clip-path:url(#clip-path-31);}.cls-25{fill:#e96560;}.cls-26{clip-path:url(#clip-path-33);}.cls-27{clip-path:url(#clip-path-35);}.cls-28{fill:#f6ce57;}</style><clipPath id="clip-path" transform="translate(5.91 7.12)"><polygon class="cls-1" points="136.37 68.9 136.37 2.67 3.88 2.67 3.88 68.9 3.88 135.13 136.37 135.13 136.37 68.9"/></clipPath><clipPath id="clip-path-2" transform="translate(5.91 7.12)"><rect class="cls-2" x="-56.79" y="-40.23" width="733.93" height="1305.42"/></clipPath><clipPath id="clip-path-3" transform="translate(5.91 7.12)"><rect class="cls-2" x="3.88" y="0.87" width="133.09" height="135.04"/></clipPath><clipPath id="clip-path-4" transform="translate(5.91 7.12)"><path class="cls-1" d="M109.39,15.57l-30,23.66L87,4.85a66.29,66.29,0,1,0,22.37,10.72"/></clipPath><clipPath id="clip-path-6" transform="translate(5.91 7.12)"><path class="cls-1" d="M64.43,70.9a0.9,0.9,0,0,1-.84-0.59L45.9,22.06a0.9,0.9,0,1,1,1.69-.62L65.27,69.69a0.9,0.9,0,0,1-.53,1.15,0.93,0.93,0,0,1-.31.05"/></clipPath><clipPath id="clip-path-8" transform="translate(5.91 7.12)"><path class="cls-1" d="M11.29,80.89a0.9,0.9,0,0,1-.08-1.79L61,74.3a0.92,0.92,0,0,1,1,.81,0.9,0.9,0,0,1-.81,1L11.37,80.88H11.29"/></clipPath><clipPath id="clip-path-10" transform="translate(5.91 7.12)"><path class="cls-1" d="M64.43,127.58h0a0.9,0.9,0,0,1-.86-0.94l1.8-45.85a0.9,0.9,0,1,1,1.8.07l-1.8,45.85a0.9,0.9,0,0,1-.9.86"/></clipPath><clipPath id="clip-path-12" transform="translate(5.91 7.12)"><path class="cls-1" d="M115,96.4L71,78.42a0.9,0.9,0,0,1,.68-1.67l44.06,18A0.9,0.9,0,0,1,115,96.4Z"/></clipPath><clipPath id="clip-path-14" transform="translate(5.91 7.12)"><path class="cls-1" d="M69.65,70.74l45.26-27.87a0.9,0.9,0,1,1,.94,1.53L70.6,72.28a0.91,0.91,0,0,1-.47.13C69.82,72.41,69.23,71,69.65,70.74Z"/></clipPath><clipPath id="clip-path-16" transform="translate(5.91 7.12)"><polygon class="cls-1" points="128.6 90.72 83.87 78.73 59.76 168.7 104.49 180.68 149.22 192.67 173.33 102.7 128.6 90.72"/></clipPath><clipPath id="clip-path-18" transform="translate(5.91 7.12)"><rect class="cls-2" x="64.55" y="85.03" width="99.81" height="97.86"/></clipPath><clipPath id="clip-path-19" transform="translate(5.91 7.12)"><path class="cls-1" d="M87.67,99.38L98.2,124,76.37,112.63A46.28,46.28,0,1,0,128.6,90.72a46.15,46.15,0,0,0-40.93,8.67"/></clipPath><clipPath id="clip-path-20" transform="translate(5.91 7.12)"><rect class="cls-2" x="58.68" y="77.2" width="105.69" height="105.69"/></clipPath><clipPath id="clip-path-21" transform="translate(5.91 7.12)"><path class="cls-1" d="M116.86,139.93a0.63,0.63,0,0,1-.55.47l-35.8,3.28a0.63,0.63,0,0,1-.68-0.57,0.64,0.64,0,0,1,.57-0.69l35.8-3.28a0.63,0.63,0,0,1,.68.57,0.66,0.66,0,0,1,0,.22"/></clipPath><clipPath id="clip-path-23" transform="translate(5.91 7.12)"><path class="cls-1" d="M113.93,177.82a0.63,0.63,0,0,1-1.23-.27l5.82-34.65a0.64,0.64,0,0,1,.73-0.52,0.63,0.63,0,0,1,.52.73l-5.82,34.66v0.06"/></clipPath><clipPath id="clip-path-25" transform="translate(5.91 7.12)"><path class="cls-1" d="M155.14,150.19v0a0.63,0.63,0,0,1-.79.42l-30.64-9.52a0.64,0.64,0,0,1-.41-0.79,0.63,0.63,0,0,1,.79-0.42l30.64,9.52a0.63,0.63,0,0,1,.42.77"/></clipPath><clipPath id="clip-path-27" transform="translate(5.91 7.12)"><path class="cls-1" d="M143.29,110.17l-20.16,26.67a0.63,0.63,0,0,1-.88.12,0.64,0.64,0,0,1-.12-0.89l20.16-26.67a0.63,0.63,0,0,1,1.11.54A0.64,0.64,0,0,1,143.29,110.17Z"/></clipPath><clipPath id="clip-path-29" transform="translate(5.91 7.12)"><path class="cls-1" d="M117.7,136.35l-10.59-35.78a0.64,0.64,0,0,1,.42-0.79,0.63,0.63,0,0,1,.78.42L118.91,136a0.64,0.64,0,0,1,0,.34A1,1,0,0,1,117.7,136.35Z"/></clipPath><clipPath id="clip-path-31" transform="translate(5.91 7.12)"><path class="cls-1" d="M45.69,144.27l-9-11.74a1.7,1.7,0,0,1,.51-2.55l12.63-7.42,8.24-12.14a1.67,1.67,0,0,1,2.57-.33l11,9.85,14.12,4.22a1.69,1.69,0,0,1,1.09,2.34L81,140l0.46,14.78a1.68,1.68,0,0,1-1.9,1.75L65,155.06,51.18,160a1.69,1.69,0,0,1-2.28-1.25Z"/></clipPath><clipPath id="clip-path-33" transform="translate(5.91 7.12)"><path class="cls-1" d="M52,151.91l-14-4.7a1.7,1.7,0,0,1-1-2.4l6.32-13.21,0-14.68a1.67,1.67,0,0,1,1.94-1.71l14.65,2L74,112.82a1.69,1.69,0,0,1,2.22,1.33l2.72,14.48,8.65,12a1.68,1.68,0,0,1-.6,2.52L74,150.07l-8.7,11.78a1.69,1.69,0,0,1-2.59.24Z"/></clipPath><clipPath id="clip-path-35" transform="translate(5.91 7.12)"><ellipse class="cls-2" cx="62.15" cy="136.66" rx="6.96" ry="6.9"/></clipPath></defs><title>lillypad</title><g class="cls-3"><g class="cls-4"><g class="cls-5"><g class="cls-6"><g class="cls-7"><g class="cls-6"><rect class="cls-8" width="152.06" height="152.03"/></g></g></g></g></g></g><g class="cls-9"><g class="cls-4"><rect class="cls-10" x="41.97" y="18.19" width="39.05" height="69.62"/></g></g><g class="cls-11"><g class="cls-4"><rect class="cls-10" x="6.51" y="71.63" width="71.13" height="26.16"/></g></g><g class="cls-12"><g class="cls-4"><rect class="cls-10" x="59.65" y="77.27" width="23.17" height="67.22"/></g></g><g class="cls-13"><g class="cls-4"><rect class="cls-10" x="66.54" y="74.02" width="65.43" height="39.35"/></g></g><g class="cls-14"><g class="cls-4"><rect class="cls-10" x="65.62" y="40.07" width="66.35" height="49.24"/></g></g><g class="cls-15"><g class="cls-4"><g class="cls-5"><g class="cls-16"><g class="cls-17"><g class="cls-18"><rect class="cls-8" x="60.19" y="79.61" width="112.71" height="112.19" transform="matrix(0.26, -0.97, 0.97, 0.26, -38.79, 220.27)"/></g></g></g></g></g></g><g class="cls-19"><g class="cls-4"><rect class="cls-10" x="81.72" y="114.12" width="33.27" height="54.56" transform="translate(-57.78 206.93) rotate(-75)"/></g></g><g class="cls-20"><g class="cls-4"><rect class="cls-10" x="88.33" y="148.24" width="55.82" height="24.18" transform="translate(-62.81 238.23) rotate(-75)"/></g></g><g class="cls-21"><g class="cls-4"><rect class="cls-10" x="128.16" y="118.82" width="22.1" height="52.89" transform="translate(-31.23 249.26) rotate(-75)"/></g></g><g class="cls-22"><g class="cls-4"><rect class="cls-10" x="106.81" y="106.42" width="51.81" height="33.4" transform="matrix(0.26, -0.97, 0.97, 0.26, -14.66, 226.57)"/></g></g><g class="cls-23"><g class="cls-4"><rect class="cls-10" x="86.81" y="98.03" width="52.46" height="40.32" transform="translate(-24.47 203.91) rotate(-75)"/></g></g><g class="cls-24"><g class="cls-4"><rect class="cls-25" x="30.68" y="99.85" width="68.25" height="71.01" transform="translate(-45.22 47.19) rotate(-25)"/></g></g><g class="cls-26"><g class="cls-4"><rect class="cls-25" x="28.77" y="98.33" width="68.25" height="71.01" transform="translate(-78.31 125.93) rotate(-59)"/></g></g><g class="cls-27"><g class="cls-4"><rect class="cls-28" x="51.31" y="127.1" width="33.48" height="33.36"/></g></g></svg>