<svg id="Layer_1" data-name="Layer 1" xmlns="http://www.w3.org/2000/svg" viewBox="0 0 582.49 235.14"><defs><style>.cls-1{fill:#fff;}</style></defs><title>ripple</title><path class="cls-1" d="M280.57,77.23a1.7,1.7,0,1,0,0-3.33l-0.09,0c-56.36.47-122.09,18.12-122.09,39.81,0,22,67,39.84,124.48,39.84,22.93,0,44.12-2.84,61.31-7.65,0,0,9.37-2.31,9.37-3.54,0-1.38-7.3-2-9.84-1.44-10.32,2.24-32.67,5.12-51.58,5.12-54.47,0-98.63-15.48-98.63-34.57C193.51,93.77,231.54,79.24,280.57,77.23Zm13.71,94.84c91,0,177.25-26.79,177.25-59.55S384.09,53.19,293.05,53.19c-62.47,0-116.79,12.58-144.76,31h0l0,0-0.07,0,0,0c-2.82,2-6.42,4.29-3.89,5s2.45,1,5.29-.54c27.77-14.36,77-23.92,133.18-23.92,86.77,0,157.11,22.8,157.11,50.92,0,26.87-64,48.82-145.38,50.75-1,0-1.78,1.22-1.78,2.78C292.7,172.08,294.28,172.08,294.28,172.08Zm-7.72,36.42c83.5,0,156.25-18.08,194.7-44.72h0c5.3-3.48,12.45-9.27,9.71-9.76-2.18-.4-5.22-0.87-6.5,0-0.49.33-5.93,3.37-6.56,3.7C439.67,178,374.52,191.3,300.54,191.3c-117.79,0-213.26-33.79-213.26-75.46C87.28,76,177.63,40,305.33,40.09c12.28,0-13-7.77-20.44-7.77-123.72,0-231.18,36-231.18,83.71C53.71,164.6,163,208.5,286.56,208.5ZM272,12.5c-4.43,2.5-6.73,4.72-2.44,4.68,164.75-1.7,284.7,50.58,284.7,110,0,60.8-122.77,110.1-274.2,110.1-114.21,0-213.7-27.86-258.24-71.59-1.37-1.34-5.32.06-6.78,1.48,55.38,54.63,168.1,78.31,267.73,80.33,92.94,1.88,185.42-16.12,247.68-44.36,41.93-21.46,67.08-48.81,67.08-78.61C597.53,97.68,567.43,12.5,272,12.5Z" transform="translate(-15.03 -12.5)"/></svg>