<svg id="Layer_1" data-name="Layer 1" xmlns="http://www.w3.org/2000/svg" viewBox="0 0 197.23 114.88"><defs><style>.cls-1{fill:#9a9a97;}.cls-2{fill:#868683;}</style></defs><title>stone</title><path class="cls-1" d="M10.79,87.43a73.51,73.51,0,0,0,39.3,24c22.93,5.49,72.84,13.11,121.59-8.1,66.21-28.81-11.28-72.81-23.12-86-9.93-11-77.62-26-102.46-2.08s-52.55,47-43.4,60.29A64,64,0,0,0,10.79,87.43Z" transform="translate(-0.91 -2.5)"/><path class="cls-2" d="M124.83,91.74a1.84,1.84,0,0,1-2-1.77,1.93,1.93,0,0,1,2-1.94c0.37,0,37.39-.63,50.92-21.53a2,2,0,0,1,2.82-.57,1.78,1.78,0,0,1,.6,2.59c-14.72,22.73-52.68,23.22-54.29,23.22h0Z" transform="translate(-0.91 -2.5)"/><path class="cls-2" d="M33.35,62a2,2,0,0,1-1.76-3.06c0.75-1.28,18.54-31.33,41.1-32.51,7.19-.43,11.95.43,14.14,2.56a3.78,3.78,0,0,1,1.28,2.76,2,2,0,0,1-2.1,2A2,2,0,0,1,84.07,32c-0.25-.29-2.15-2-11.15-1.5C52.51,31.54,35.28,60.67,35.11,61A2,2,0,0,1,33.35,62Z" transform="translate(-0.91 -2.5)"/></svg>