<svg id="Layer_1" data-name="Layer 1" xmlns="http://www.w3.org/2000/svg" viewBox="0 0 250 250"><defs><style>.cls-1{fill:#fff;}</style></defs><title>animals</title><path class="cls-1" d="M177.31,247.67a2.47,2.47,0,0,1-1.38-.42c-2.38-1.9-2.8-2-3.92-2.12a18.73,18.73,0,0,1-3.69-.89c-4.49-1.5-6-10.49-6.43-14h0c-1.76,1.84-15.67,15.53-39.3,15.53-19.35,0-28.77-9.5-32.18-14.08-0.63,4.1-2.28,11.24-6.23,12.56a18.75,18.75,0,0,1-3.69.89c-1.12.16-1.54,0.22-3.85,2.07a2.92,2.92,0,0,1-3.44-.19,5.73,5.73,0,0,0-5.35-.55q-0.3.13-.59,0.29a2.84,2.84,0,0,1-2.87-.1c-2.62-1.5-4.5-6.45-4.63-10.17-0.22-1.19-1.66-11.4,10.83-27.09a16.49,16.49,0,0,0-2.53-4c-4.84-6.57-14.9-20.23-18.47-51-2.38-13.59,1.87-28.14,5.86-37.94a115.65,115.65,0,0,1,9.25-18.08c2.43-5.34,5.45-14.66,3.29-17.18-0.62-.72-1.79-0.85-3.49-0.38-6.22,1.73-15,7.17-22.81,12-6.67,4.11-11.94,7.36-14.76,7.87a4.6,4.6,0,0,1-4.52-1.61c-3-3.53-2.82-11.76-.89-17.37,2.36-6.84,16.93-32.38,45.12-32.38,9,0,15.9,2.5,20.54,7.42a24,24,0,0,1,6.14,15l10.41-5.66L106,50.63c-1.59-2-8.49-11.35-4.71-21.94,4.09-11.46,16.36-25,22.62-25,5,0,12.61,6.39,20.85,17.52a23.86,23.86,0,0,1,.05,28.56l-0.65.83c0,1.9,1,10.37,1.79,16,2.18,0.3,8.26,1.37,11.4,4.24,1.3-5.8,6-20.87,20.16-21.47,10.72-.46,30.86,5,42.15,18.44,7.35,8.77,9.72,19.31,7.05,31.32a1,1,0,0,1-.16.36,2.62,2.62,0,0,1-1.9,1.1c-3.23.37-8.62-4.32-9.22-4.86-7.23-5.49-27.52-19-33.77-14.9a3.93,3.93,0,0,0-1.76,2.83c-1.19,7.3,10.09,21.63,10.21,21.77l0.08,0.12c0.3,0.52,7.45,12.89,9.94,31.92,2.29,17.44.85,43.87-18.86,71l0.47,0.66c12.7,15.8,11.25,26.14,11,27.33-0.13,3.72-2,8.67-4.63,10.17a2.84,2.84,0,0,1-2.87.09c-0.2-.11-0.4-0.21-0.59-0.29a5.72,5.72,0,0,0-5.35.55A3.74,3.74,0,0,1,177.31,247.67Zm-14.57-19.83a1,1,0,0,1,1,.92c0.4,4.71,2.16,12.57,5.21,13.59a16.79,16.79,0,0,0,3.34.8c1.48,0.21,2.18.38,4.82,2.49a1.38,1.38,0,0,0,1.12-.32,7.71,7.71,0,0,1,7.23-.68c0.25,0.11.49,0.23,0.74,0.37a0.84,0.84,0,0,0,.91-0.08c1.59-.91,3.53-4.86,3.63-8.58a1,1,0,0,1,0-.19c0-.09,1.95-10.12-10.65-25.8l-0.92-1.3a1,1,0,0,1,0-1.17c19.69-26.81,21.16-52.91,18.92-70.09a91.91,91.91,0,0,0-9.67-31.2c-0.93-1.19-11.87-15.29-10.57-23.28a5.9,5.9,0,0,1,2.64-4.18c8.55-5.58,33.33,12.91,36.13,15,2.08,1.85,6,4.62,7.72,4.42a0.69,0.69,0,0,0,.39-0.15c2.44-11.27.19-21.15-6.69-29.36-10.85-13-30.25-18.16-40.54-17.73-15.73.67-18.66,21.76-18.68,22a1,1,0,0,1-1.9.29c-1.56-3.38-9.22-4.85-12-5.14a1,1,0,0,1-.89-0.86C143.68,65,141.89,52,142.17,50a1,1,0,0,1,.22-0.5q0.42-.5.81-1a21.85,21.85,0,0,0-.07-26.15c-7.75-10.46-14.95-16.71-19.25-16.71-5,0-16.74,12.48-20.74,23.7-3.77,10.57,4.54,20.21,4.63,20.31a1,1,0,0,1,.24.81l-2.41,16.45a1,1,0,0,1-.51.73L92.77,74.35a1,1,0,0,1-1.48-.94c0-.09.42-8.91-5.63-15.31-4.25-4.5-10.67-6.78-19.07-6.78-27,0-41,24.48-43.23,31-2,5.73-1.74,12.79.51,15.41a2.63,2.63,0,0,0,2.65.94c2.45-.45,8.1-3.92,14.07-7.61,7.89-4.86,16.83-10.37,23.32-12.18,2.51-.7,4.38-0.36,5.54,1,3.7,4.33-2.33,17.86-3,19.38l-0.08.14c-0.19.29-19.27,29.43-14.84,54.69,3.52,30.28,13.37,43.65,18.1,50.08,1.91,2.6,3.07,4.17,2.92,5.61a1,1,0,0,1-.22.53c-12.59,15.68-10.67,25.7-10.65,25.8a1,1,0,0,1,0,.18c0.1,3.72,2,7.66,3.63,8.58a0.83,0.83,0,0,0,.91.08c0.25-.14.5-0.26,0.74-0.37a7.72,7.72,0,0,1,7.23.68,1.26,1.26,0,0,0,1.19.27c2.56-2.06,3.27-2.23,4.75-2.44a16.79,16.79,0,0,0,3.34-.8c3.05-1,4.81-8.88,5.21-13.59a1,1,0,0,1,1.88-.38c0.08,0.15,8.27,15.38,32,15.38a54.6,54.6,0,0,0,38-15.06,1,1,0,0,1,.39-0.26l1.46-.54A1,1,0,0,1,162.74,227.84Z"/></svg>