<svg id="Layer_1" data-name="Layer 1" xmlns="http://www.w3.org/2000/svg" xmlns:xlink="http://www.w3.org/1999/xlink" viewBox="0 0 148.71 192.76"><defs><style>.cls-1,.cls-2{fill:none;}.cls-1{clip-rule:evenodd;}.cls-3{clip-path:url(#clip-path);}.cls-4{clip-path:url(#clip-path-2);}.cls-5{fill:#e0bc4d;}.cls-6{clip-path:url(#clip-path-3);}.cls-7{fill:#fff;}.cls-8{clip-path:url(#clip-path-5);}.cls-9{fill:#d44f4c;}</style><clipPath id="clip-path" transform="translate(4.98 -3.34)"><path class="cls-1" d="M28.68,109.06S14.47,165.12,3.22,174.4L36.08,162,48.8,189.55s20.51-50.1,21.7-65.29Z"/></clipPath><clipPath id="clip-path-2" transform="translate(4.98 -3.34)"><rect class="cls-2" x="-24.32" y="-87.34" width="187.87" height="334.16"/></clipPath><clipPath id="clip-path-3" transform="translate(4.98 -3.34)"><path class="cls-1" d="M108.7,108.59s20,54.27,32.15,62.32l-34-8.93-9.77,28.76s-25.64-47.68-28.4-62.66Z"/></clipPath><clipPath id="clip-path-5" transform="translate(4.98 -3.34)"><ellipse class="cls-2" cx="70.04" cy="69.09" rx="63.8" ry="63.24"/></clipPath></defs><title>turtleswin</title><g class="cls-3"><g class="cls-4"><rect class="cls-5" x="-1.33" y="105.99" width="76.4" height="86.95" transform="translate(-7.91 0.44) rotate(-5)"/></g></g><g class="cls-6"><g class="cls-4"><rect class="cls-5" x="66.58" y="106.16" width="76.4" height="86.95" transform="translate(2.38 -1.49) rotate(-1)"/></g></g><path class="cls-7" d="M48.86,184.62L37.52,158.81,8.25,170.24l1.21-1c9.43-7.78,20.07-53.85,20.18-54.31l0.06-.28,36.12,13.13V128c-1,12.85-16.58,55.63-16.73,56.06ZM37.79,158.17l11,25.11c1.87-5.18,15.42-43,16.48-55.15L30.06,115.32c-0.43,1.84-3,12.58-6.47,24-4.75,15.5-9.07,25.38-12.87,29.42Z" transform="translate(4.98 -3.34)"/><path class="cls-7" d="M96.79,184.86l-0.27-.54c-0.21-.41-20.88-41-23.44-53.61l0-.19,0.17-.09,34.09-17.35,0.09,0.27c0.16,0.46,16.09,46.1,26.39,52.67l1.34,0.86-29.9-7.81ZM73.6,130.81c2.54,12,20.63,47.91,23.09,52.75l8.2-25.08,27.57,7.2c-4.26-3.58-9.71-13.07-16.23-28.24-4.81-11.19-8.58-21.82-9.22-23.64Z" transform="translate(4.98 -3.34)"/><g class="cls-8"><g class="cls-4"><rect class="cls-9" x="8.71" width="132.61" height="131.49"/></g></g><path class="cls-9" d="M70,132.58C34.73,132.58,6,104.1,6,69.09S34.73,5.59,70,5.59,134.1,34.08,134.1,69.09,105.36,132.58,70,132.58ZM70,6.09c-35,0-63.55,28.26-63.55,63s28.51,63,63.55,63,63.55-28.26,63.55-63S105.09,6.09,70,6.09Z" transform="translate(4.98 -3.34)"/><path class="cls-7" d="M88.7,111.46a1,1,0,0,1-.57-0.17,2.16,2.16,0,0,0-1.28-.71,6.57,6.57,0,0,1-1.3-.31c-1.51-.5-2.08-3.26-2.28-4.65a19.57,19.57,0,0,1-13.42,5.18c-6.35,0-9.63-2.95-11-4.62-0.26,1.47-.87,3.65-2.19,4.1a6.57,6.57,0,0,1-1.3.31,2.08,2.08,0,0,0-1.25.68,1.16,1.16,0,0,1-1.36-.05,1.81,1.81,0,0,0-1.69-.18l-0.19.09a1.13,1.13,0,0,1-1.14,0c-0.95-.54-1.62-2.3-1.67-3.62-0.09-.49-0.52-4,3.71-9.38A8,8,0,0,0,51,96.85c-1.67-2.27-5.15-7-6.39-17.62-0.83-4.71.65-9.74,2-13.14a39.24,39.24,0,0,1,3.19-6.24c0.88-1.93,1.81-5,1.15-5.74a1,1,0,0,0-1-.08c-2.12.59-5.14,2.46-7.81,4.1C39.78,59.56,38,60.68,37,60.86a1.73,1.73,0,0,1-1.7-.61c-1.09-1.27-1-4.12-.33-6.13,0.82-2.38,5.88-11.25,15.68-11.25,3.14,0,5.55.88,7.19,2.6a8.37,8.37,0,0,1,2.14,5l3.3-1.79L64,43.52c-0.63-.8-2.9-4-1.6-7.65,1.43-4,5.73-8.72,7.94-8.72,2.43,0,5.62,3.82,7.3,6.09a8.37,8.37,0,0,1,0,10l-0.19.25c0,0.64.29,3,.6,5.32a8.56,8.56,0,0,1,3.69,1.31,13.92,13.92,0,0,1,1.06-3c1.35-2.7,3.42-4.19,6-4.3,3.73-.16,10.72,1.72,14.64,6.4a12.1,12.1,0,0,1,2.46,10.92,0.5,0.5,0,0,1-.08.18,1.05,1.05,0,0,1-.76.45c-1.15.13-2.95-1.4-3.3-1.71-3.43-2.6-9.59-6.32-11.43-5.12a1.2,1.2,0,0,0-.54.87c-0.33,2,2.4,6,3.48,7.37l0,0.06a33.83,33.83,0,0,1-3,35.52L90.35,98c4.36,5.42,3.91,9,3.82,9.51,0,1.32-.73,3.08-1.67,3.62a1.13,1.13,0,0,1-1.14,0l-0.19-.1a1.82,1.82,0,0,0-1.7.18A1.43,1.43,0,0,1,88.7,111.46Zm0-1h0Zm-5-6.16a0.5,0.5,0,0,1,.5.46c0.14,1.7.76,4.23,1.69,4.54a5.67,5.67,0,0,0,1.12.27,3,3,0,0,1,1.73.89,0.57,0.57,0,0,1,.21-0.12,2.81,2.81,0,0,1,2.64-.25l0.27,0.14a0.14,0.14,0,0,0,.16,0,4,4,0,0,0,1.17-2.82,0.51,0.51,0,0,1,0-.09s0.64-3.42-3.63-8.75l-0.32-.46a0.5,0.5,0,0,1,0-.59,32.79,32.79,0,0,0,3.18-34.69c-0.37-.47-4.12-5.33-3.66-8.12a2.18,2.18,0,0,1,1-1.55c1.36-.89,3.85-0.27,7.6,1.87a53,53,0,0,1,5,3.31c0.74,0.65,2,1.55,2.54,1.49h0a11.11,11.11,0,0,0-2.28-9.9c-3.7-4.42-10.32-6.19-13.83-6-5.29.23-6.27,7.36-6.28,7.43a0.5,0.5,0,0,1-1,.15c-0.5-1.09-3.14-1.59-4-1.68a0.5,0.5,0,0,1-.45-0.43,60.69,60.69,0,0,1-.64-6.1A0.5,0.5,0,0,1,76.56,43l0.27-.34a7.36,7.36,0,0,0,0-8.81c-3.11-4.19-5.39-5.69-6.5-5.69-1.63,0-5.66,4.32-7,8.05C62.05,39.76,64.85,43,64.88,43a0.5,0.5,0,0,1,.12.4l-0.83,5.66a0.5,0.5,0,0,1-.26.37l-4.24,2.3a0.5,0.5,0,0,1-.74-0.47A7.66,7.66,0,0,0,57,46.16c-1.43-1.51-3.6-2.28-6.45-2.28-9.2,0-14,8.34-14.73,10.58-0.65,1.89-.58,4.3.15,5.15a0.74,0.74,0,0,0,.76.27,24.1,24.1,0,0,0,4.79-2.6c2.72-1.68,5.81-3.58,8.07-4.21a1.85,1.85,0,0,1,2.07.39c1.31,1.53-.62,6-1,6.84l0,0.07c-0.07.1-6.6,10.08-5.08,18.71,1.21,10.39,4.58,15,6.2,17.17,0.68,0.92,1.09,1.48,1,2a0.5,0.5,0,0,1-.11.26c-4.28,5.32-3.64,8.72-3.63,8.75a0.54,0.54,0,0,1,0,.09,4,4,0,0,0,1.17,2.82,0.14,0.14,0,0,0,.16,0l0.27-.13a2.81,2.81,0,0,1,2.63.25,0.4,0.4,0,0,0,.24.09,2.91,2.91,0,0,1,1.7-.86,5.67,5.67,0,0,0,1.12-.27c0.93-.31,1.55-2.84,1.69-4.54a0.5,0.5,0,0,1,.94-0.19c0.11,0.21,2.81,5.21,10.86,5.21a18.69,18.69,0,0,0,13-5.13,0.5,0.5,0,0,1,.2-0.13l0.5-.18A0.51,0.51,0,0,1,83.69,104.32Z" transform="translate(4.98 -3.34)"/></svg>