<?xml version="1.0" encoding="UTF-8" standalone="no"?>
<svg width="304px" height="304px" viewBox="0 0 304 304" version="1.1" xmlns="http://www.w3.org/2000/svg" xmlns:xlink="http://www.w3.org/1999/xlink">
    <!-- Generator: Sketch 3.6.1 (26313) - http://www.bohemiancoding.com/sketch -->
    <title>Group</title>
    <desc>Created with Sketch.</desc>
    <defs></defs>
    <g id="Page-1" stroke="none" stroke-width="1" fill="none" fill-rule="evenodd">
        <g id="Turtles-Waiting" transform="translate(-36.000000, -138.000000)">
            <g id="Group" transform="translate(37.000000, 139.000000)">
                <ellipse id="Oval-1" stroke="#D44E4C" fill="#D44E4C" cx="151.155183" cy="151.155183" rx="151.155183" ry="151.155183"></ellipse>
                <path d="M184.090512,242.270985 C184.090512,242.270985 185.027908,253.519742 189.246192,254.925837 C193.464476,256.331931 192.604883,254.848033 196.12012,257.660222 C196.745363,258.076426 197.485907,257.836453 198.115837,257.439934 C199.776903,256.397549 201.829802,256.103207 203.621166,256.900931 C203.815207,256.987171 204.010186,257.083723 204.205164,257.191524 C206.548655,258.480444 209.360844,253.090415 209.478019,248.872131 C209.478019,248.872131 211.469986,239.84969 199.98688,225.554395 L199.213528,224.460453 C232.959799,178.528029 207.337006,134.78255 207.337006,134.78255 C207.337006,134.78255 192.963906,116.659865 200.150925,111.972883 C207.337006,107.285901 230.771916,125.096433 230.771916,125.096433 C230.771916,125.096433 237.450866,131.032964 239.208484,128.533865 C246.083349,97.5997834 211.711835,85.4136299 197.025645,86.0379359 C182.340393,86.6631793 179.840356,106.036351 179.840356,106.036351 C177.965564,101.973675 168.591599,101.036279 168.591599,101.036279 C168.591599,101.036279 166.716806,87.5227718 166.951156,85.8823281 C167.20519,85.5795491 167.447976,85.2758326 167.681387,84.9702414 C173.047045,77.9519544 172.88675,68.1224155 167.627956,61.0244498 C160.754028,51.7461001 154.240998,46.0429802 150.075208,46.0429802 C145.152002,46.0429802 134.610979,57.5260864 131.095743,67.3687488 C127.580506,77.2114112 135.314026,86.0154384 135.314026,86.0154384 L133.204884,100.411973 L122.424826,106.2707 C122.424826,106.2707 123.596571,86.0154384 99.9273115,86.0154384 C76.2580519,86.0154384 63.6032003,106.973748 61.2597092,113.769872 C58.9162182,120.565996 59.8536146,130.174309 65.0092949,129.236913 C70.1649752,128.299516 87.7411581,114.707268 97.8181696,111.895079 C107.895181,109.082889 98.9899151,128.533865 98.9899151,128.533865 C98.9899151,128.533865 81.8824305,154.312267 85.8663652,177.04413 C90.0846491,213.368241 104.614294,222.039158 104.26277,225.554395 C92.7796638,239.84969 94.7716312,248.872131 94.7716312,248.872131 C94.8888058,253.090415 97.7009951,258.480444 100.044486,257.191524 C100.239465,257.083723 100.43538,256.987171 100.629421,256.900931 C102.419849,256.103207 104.473684,256.397549 106.133813,257.439934 C106.763744,257.836453 107.504287,258.076426 108.12953,257.660222 C111.644767,254.848033 110.785174,256.331931 115.003458,254.925837 C119.221742,253.519742 120.159138,242.270985 120.159138,242.270985 C120.159138,242.270985 127.346157,256.208195 148.906275,256.208195 C170.466392,256.208195 182.809091,242.739683 182.809091,242.739683 L184.090512,242.270985 L184.090512,242.270985 Z" id="Page-1" stroke="#FFFFFF" stroke-width="2" stroke-linecap="round" stroke-linejoin="round"></path>
            </g>
        </g>
    </g>
</svg>