<svg id="Layer_1" data-name="Layer 1" xmlns="http://www.w3.org/2000/svg" viewBox="0 0 569 53.85"><defs><style>.cls-1{fill:#fefefe;}</style></defs><title>wave</title><path class="cls-1" d="M433.75,66.69c-36.74,0-55.33-12-73.3-23.56-17.78-11.46-34.57-22.28-69-22.28s-51.18,10.82-69,22.28c-18,11.58-36.55,23.56-73.29,23.56S93.92,54.72,76,43.14C58.17,31.68,41.38,20.86,7,20.86v-8c36.74,0,55.32,12,73.29,23.56,17.78,11.45,34.57,22.28,69,22.28s51.18-10.82,69-22.28c18-11.58,36.55-23.56,73.29-23.56s55.32,12,73.3,23.56c17.78,11.46,34.57,22.28,69,22.28s51.18-10.82,69-22.28c18-11.58,36.56-23.56,73.3-23.56v8c-34.38,0-51.18,10.82-69,22.28C489.07,54.72,470.49,66.69,433.75,66.69Z" transform="translate(-7 -12.84)"/></svg>